<mxfile host="app.diagrams.net" agent="Mozilla/5.0 (Windows NT 10.0; Win64; x64) AppleWebKit/537.36 (KHTML, like Gecko) Chrome/137.0.0.0 Safari/537.36" version="27.2.0">
  <diagram id="prtHgNgQTEPvFCAcTncT" name="Page-1">
    <mxGraphModel dx="872" dy="477" grid="1" gridSize="10" guides="1" tooltips="1" connect="1" arrows="1" fold="1" page="1" pageScale="1" pageWidth="827" pageHeight="1169" math="0" shadow="0">
      <root>
        <mxCell id="0" />
        <mxCell id="1" parent="0" />
        <mxCell id="KsuPeP8_L34iGkrEoVU8-6" value="" style="rounded=0;whiteSpace=wrap;html=1;fillColor=#1ba1e2;fontColor=#ffffff;strokeColor=#006EAF;" vertex="1" parent="1">
          <mxGeometry x="80" y="80" width="730" height="570" as="geometry" />
        </mxCell>
        <mxCell id="KsuPeP8_L34iGkrEoVU8-23" style="edgeStyle=orthogonalEdgeStyle;rounded=0;orthogonalLoop=1;jettySize=auto;html=1;exitX=1;exitY=0.3333333333333333;exitDx=0;exitDy=0;exitPerimeter=0;entryX=0;entryY=0.5;entryDx=0;entryDy=0;" edge="1" parent="1" target="KsuPeP8_L34iGkrEoVU8-16">
          <mxGeometry relative="1" as="geometry">
            <mxPoint x="30" y="160" as="sourcePoint" />
          </mxGeometry>
        </mxCell>
        <mxCell id="KsuPeP8_L34iGkrEoVU8-39" style="edgeStyle=orthogonalEdgeStyle;rounded=0;orthogonalLoop=1;jettySize=auto;html=1;exitX=0;exitY=0.5;exitDx=0;exitDy=0;startArrow=classic;startFill=1;" edge="1" parent="1" source="KsuPeP8_L34iGkrEoVU8-8">
          <mxGeometry relative="1" as="geometry">
            <mxPoint x="490" y="305" as="targetPoint" />
          </mxGeometry>
        </mxCell>
        <mxCell id="KsuPeP8_L34iGkrEoVU8-42" style="edgeStyle=orthogonalEdgeStyle;rounded=0;orthogonalLoop=1;jettySize=auto;html=1;exitX=1;exitY=0.5;exitDx=0;exitDy=0;startArrow=block;startFill=1;" edge="1" parent="1" source="KsuPeP8_L34iGkrEoVU8-8" target="KsuPeP8_L34iGkrEoVU8-11">
          <mxGeometry relative="1" as="geometry" />
        </mxCell>
        <mxCell id="KsuPeP8_L34iGkrEoVU8-8" value="Database Management" style="ellipse;whiteSpace=wrap;html=1;fillColor=#1ba1e2;fontColor=#ffffff;strokeColor=light-dark(#006EAF,#000000);fontStyle=1" vertex="1" parent="1">
          <mxGeometry x="550" y="280" width="90" height="50" as="geometry" />
        </mxCell>
        <mxCell id="KsuPeP8_L34iGkrEoVU8-34" style="edgeStyle=orthogonalEdgeStyle;rounded=0;orthogonalLoop=1;jettySize=auto;html=1;exitX=0;exitY=0.5;exitDx=0;exitDy=0;entryX=0;entryY=0.5;entryDx=0;entryDy=0;" edge="1" parent="1" target="KsuPeP8_L34iGkrEoVU8-9">
          <mxGeometry relative="1" as="geometry">
            <mxPoint x="300" y="305" as="sourcePoint" />
          </mxGeometry>
        </mxCell>
        <mxCell id="KsuPeP8_L34iGkrEoVU8-37" style="edgeStyle=orthogonalEdgeStyle;rounded=0;orthogonalLoop=1;jettySize=auto;html=1;exitX=1;exitY=0.5;exitDx=0;exitDy=0;" edge="1" parent="1" source="KsuPeP8_L34iGkrEoVU8-9">
          <mxGeometry relative="1" as="geometry">
            <mxPoint x="490" y="305" as="targetPoint" />
          </mxGeometry>
        </mxCell>
        <mxCell id="KsuPeP8_L34iGkrEoVU8-9" value="API Development" style="ellipse;whiteSpace=wrap;html=1;fillColor=#1ba1e2;fontColor=#ffffff;strokeColor=light-dark(#006EAF,#000000);fontStyle=1" vertex="1" parent="1">
          <mxGeometry x="355" y="280" width="90" height="50" as="geometry" />
        </mxCell>
        <mxCell id="KsuPeP8_L34iGkrEoVU8-38" style="edgeStyle=orthogonalEdgeStyle;rounded=0;orthogonalLoop=1;jettySize=auto;html=1;exitX=0;exitY=0.5;exitDx=0;exitDy=0;entryX=0;entryY=0.5;entryDx=0;entryDy=0;startArrow=block;startFill=1;" edge="1" parent="1" target="KsuPeP8_L34iGkrEoVU8-10">
          <mxGeometry relative="1" as="geometry">
            <mxPoint x="490" y="155" as="sourcePoint" />
          </mxGeometry>
        </mxCell>
        <mxCell id="KsuPeP8_L34iGkrEoVU8-10" value="Authentication &amp;amp; Authorization" style="ellipse;whiteSpace=wrap;html=1;fillColor=#1ba1e2;fontColor=#ffffff;strokeColor=light-dark(#006EAF,#000000);fontStyle=1" vertex="1" parent="1">
          <mxGeometry x="550" y="130" width="90" height="50" as="geometry" />
        </mxCell>
        <mxCell id="KsuPeP8_L34iGkrEoVU8-11" value="File Storage" style="ellipse;whiteSpace=wrap;html=1;fillColor=#1ba1e2;fontColor=#ffffff;strokeColor=light-dark(#006EAF,#000000);fontStyle=1" vertex="1" parent="1">
          <mxGeometry x="700" y="280" width="90" height="50" as="geometry" />
        </mxCell>
        <mxCell id="KsuPeP8_L34iGkrEoVU8-40" style="edgeStyle=orthogonalEdgeStyle;rounded=0;orthogonalLoop=1;jettySize=auto;html=1;exitX=0;exitY=0.5;exitDx=0;exitDy=0;startArrow=classic;startFill=1;" edge="1" parent="1" source="KsuPeP8_L34iGkrEoVU8-12">
          <mxGeometry relative="1" as="geometry">
            <mxPoint x="490" y="445" as="targetPoint" />
          </mxGeometry>
        </mxCell>
        <mxCell id="KsuPeP8_L34iGkrEoVU8-12" value="Third-Party Services" style="ellipse;whiteSpace=wrap;html=1;fillColor=#1ba1e2;fontColor=#ffffff;strokeColor=light-dark(#006EAF,#000000);fontStyle=1" vertex="1" parent="1">
          <mxGeometry x="550" y="420" width="90" height="50" as="geometry" />
        </mxCell>
        <mxCell id="KsuPeP8_L34iGkrEoVU8-41" style="edgeStyle=orthogonalEdgeStyle;rounded=0;orthogonalLoop=1;jettySize=auto;html=1;exitX=0;exitY=0.5;exitDx=0;exitDy=0;" edge="1" parent="1" source="KsuPeP8_L34iGkrEoVU8-13">
          <mxGeometry relative="1" as="geometry">
            <mxPoint x="490" y="560" as="targetPoint" />
          </mxGeometry>
        </mxCell>
        <mxCell id="KsuPeP8_L34iGkrEoVU8-13" value="Notification" style="ellipse;whiteSpace=wrap;html=1;fillColor=#1ba1e2;fontColor=#ffffff;strokeColor=light-dark(#006EAF,#000000);fontStyle=1" vertex="1" parent="1">
          <mxGeometry x="550" y="535" width="90" height="50" as="geometry" />
        </mxCell>
        <mxCell id="KsuPeP8_L34iGkrEoVU8-24" style="edgeStyle=orthogonalEdgeStyle;rounded=0;orthogonalLoop=1;jettySize=auto;html=1;exitX=0.5;exitY=1;exitDx=0;exitDy=0;entryX=0.5;entryY=0;entryDx=0;entryDy=0;" edge="1" parent="1" source="KsuPeP8_L34iGkrEoVU8-16" target="KsuPeP8_L34iGkrEoVU8-17">
          <mxGeometry relative="1" as="geometry" />
        </mxCell>
        <mxCell id="KsuPeP8_L34iGkrEoVU8-35" style="edgeStyle=orthogonalEdgeStyle;rounded=0;orthogonalLoop=1;jettySize=auto;html=1;exitX=1;exitY=0.5;exitDx=0;exitDy=0;" edge="1" parent="1" source="KsuPeP8_L34iGkrEoVU8-16">
          <mxGeometry relative="1" as="geometry">
            <mxPoint x="300" y="155" as="targetPoint" />
          </mxGeometry>
        </mxCell>
        <mxCell id="KsuPeP8_L34iGkrEoVU8-16" value="SignIn / SignUp" style="ellipse;whiteSpace=wrap;html=1;fillColor=#1ba1e2;fontColor=#ffffff;strokeColor=light-dark(#006EAF,#000000);fontStyle=1" vertex="1" parent="1">
          <mxGeometry x="150" y="130" width="90" height="50" as="geometry" />
        </mxCell>
        <mxCell id="KsuPeP8_L34iGkrEoVU8-33" style="edgeStyle=orthogonalEdgeStyle;rounded=0;orthogonalLoop=1;jettySize=auto;html=1;exitX=1;exitY=0.5;exitDx=0;exitDy=0;" edge="1" parent="1" source="KsuPeP8_L34iGkrEoVU8-17">
          <mxGeometry relative="1" as="geometry">
            <mxPoint x="300" y="255" as="targetPoint" />
          </mxGeometry>
        </mxCell>
        <mxCell id="KsuPeP8_L34iGkrEoVU8-17" value="Search" style="ellipse;whiteSpace=wrap;html=1;fillColor=#1ba1e2;fontColor=#ffffff;strokeColor=light-dark(#006EAF,#000000);fontStyle=1" vertex="1" parent="1">
          <mxGeometry x="150" y="230" width="90" height="50" as="geometry" />
        </mxCell>
        <mxCell id="KsuPeP8_L34iGkrEoVU8-32" style="edgeStyle=orthogonalEdgeStyle;rounded=0;orthogonalLoop=1;jettySize=auto;html=1;exitX=1;exitY=0.5;exitDx=0;exitDy=0;" edge="1" parent="1" source="KsuPeP8_L34iGkrEoVU8-18">
          <mxGeometry relative="1" as="geometry">
            <mxPoint x="300" y="345" as="targetPoint" />
          </mxGeometry>
        </mxCell>
        <mxCell id="KsuPeP8_L34iGkrEoVU8-18" value="Book" style="ellipse;whiteSpace=wrap;html=1;fillColor=#1ba1e2;fontColor=#ffffff;strokeColor=light-dark(#006EAF,#000000);fontStyle=1" vertex="1" parent="1">
          <mxGeometry x="150" y="320" width="90" height="50" as="geometry" />
        </mxCell>
        <mxCell id="KsuPeP8_L34iGkrEoVU8-31" style="edgeStyle=orthogonalEdgeStyle;rounded=0;orthogonalLoop=1;jettySize=auto;html=1;exitX=1;exitY=0.5;exitDx=0;exitDy=0;" edge="1" parent="1" source="KsuPeP8_L34iGkrEoVU8-19">
          <mxGeometry relative="1" as="geometry">
            <mxPoint x="300" y="445" as="targetPoint" />
          </mxGeometry>
        </mxCell>
        <mxCell id="KsuPeP8_L34iGkrEoVU8-19" value="Pay" style="ellipse;whiteSpace=wrap;html=1;fillColor=#1ba1e2;fontColor=#ffffff;strokeColor=light-dark(#006EAF,#000000);fontStyle=1" vertex="1" parent="1">
          <mxGeometry x="150" y="420" width="90" height="50" as="geometry" />
        </mxCell>
        <mxCell id="KsuPeP8_L34iGkrEoVU8-30" style="edgeStyle=orthogonalEdgeStyle;rounded=0;orthogonalLoop=1;jettySize=auto;html=1;exitX=1;exitY=0.5;exitDx=0;exitDy=0;" edge="1" parent="1" source="KsuPeP8_L34iGkrEoVU8-20">
          <mxGeometry relative="1" as="geometry">
            <mxPoint x="300" y="560" as="targetPoint" />
          </mxGeometry>
        </mxCell>
        <mxCell id="KsuPeP8_L34iGkrEoVU8-20" value="Review" style="ellipse;whiteSpace=wrap;html=1;fillColor=#1ba1e2;fontColor=#ffffff;strokeColor=light-dark(#006EAF,#000000);fontStyle=1" vertex="1" parent="1">
          <mxGeometry x="150" y="535" width="90" height="50" as="geometry" />
        </mxCell>
        <mxCell id="KsuPeP8_L34iGkrEoVU8-29" value="" style="endArrow=none;html=1;rounded=0;movable=1;resizable=1;rotatable=1;deletable=1;editable=1;locked=0;connectable=1;" edge="1" parent="1">
          <mxGeometry width="50" height="50" relative="1" as="geometry">
            <mxPoint x="302" y="566" as="sourcePoint" />
            <mxPoint x="302" y="149.99848890986902" as="targetPoint" />
          </mxGeometry>
        </mxCell>
        <mxCell id="KsuPeP8_L34iGkrEoVU8-36" value="" style="endArrow=none;html=1;rounded=0;movable=1;resizable=1;rotatable=1;deletable=1;editable=1;locked=0;connectable=1;" edge="1" parent="1">
          <mxGeometry width="50" height="50" relative="1" as="geometry">
            <mxPoint x="490" y="566.001511090131" as="sourcePoint" />
            <mxPoint x="490" y="150" as="targetPoint" />
          </mxGeometry>
        </mxCell>
        <mxCell id="KsuPeP8_L34iGkrEoVU8-44" style="edgeStyle=orthogonalEdgeStyle;rounded=0;orthogonalLoop=1;jettySize=auto;html=1;exitX=0.5;exitY=1;exitDx=0;exitDy=0;entryX=0.5;entryY=0;entryDx=0;entryDy=0;entryPerimeter=0;" edge="1" parent="1" source="KsuPeP8_L34iGkrEoVU8-13" target="KsuPeP8_L34iGkrEoVU8-43">
          <mxGeometry relative="1" as="geometry" />
        </mxCell>
        <mxCell id="KsuPeP8_L34iGkrEoVU8-43" value="User" style="shape=umlActor;verticalLabelPosition=bottom;verticalAlign=top;html=1;outlineConnect=0;" vertex="1" parent="1">
          <mxGeometry x="580" y="720" width="30" height="60" as="geometry" />
        </mxCell>
        <mxCell id="KsuPeP8_L34iGkrEoVU8-45" value="Client" style="shape=umlActor;verticalLabelPosition=bottom;verticalAlign=top;html=1;outlineConnect=0;" vertex="1" parent="1">
          <mxGeometry y="140" width="30" height="60" as="geometry" />
        </mxCell>
      </root>
    </mxGraphModel>
  </diagram>
</mxfile>
